Outbreak (1995) 
  127 min   -  Action | Drama | Horror  -   10 March 1995 (USA) 
 6.5 
Your rating:  
 










-/10
   
 Ratings: 6.5/10 from 58,824 users   
 Reviews: 111 user | 56 critic 


 Extreme measures are necessary to contain an epidemic of a deadly airborne virus. But how extreme, exactly?



--------------------------------------------------------------------

C:UsersGzUsDocumentsDVDFabmp4OUTBREAK_16X9FFOUTBREAK.mp4
   General
      Complete name : C:UsersGzUsDocumentsDVDFabmp4OUTBREAK_16X9FFOUTBREAK.mp4
      Format : MPEG-4
      Format profile : Base Media
      Codec ID : isom
      File size : 1.04 GiB
      Duration : 2h 8mn
      Overall bit rate : 1 163 Kbps
      Movie name : OUTBREAK
      Album : OUTBREAK_16X9FF
      Writing application : Lavf52.78.4
   Video #1
      ID : 1
      Format : AVC
      Format/Info : Advanced Video Codec
      Format profile : Main@L3.0
      Format settings, CABAC : Yes
      Format settings, ReFrames : 1 frame
      Codec ID : avc1
      Codec ID/Info : Advanced Video Coding
      Duration : 2h 8mn
      Bit rate mode : Variable
      Bit rate : 840 Kbps
      Width : 720 pixels
      Height : 408 pixels
      Display aspect ratio : 16:9
      Frame rate mode : Constant
      Frame rate : 23.976 fps
      Resolution : 24 bits
      Colorimetry : 4:2:0
      Scan type : Progressive
      Bits/(Pixel*Frame) : 0.119
      Stream size : 770 MiB (72%)
      Writing library : x264 core
      colour_primaries : BT.601-6 525, BT.1358 525, BT.1700 NTSC, SMPTE 170M
      transfer_characteristics : BT.709-5, BT.1361
      matrix_coefficients : BT.601-6 525, BT.1358 525, BT.1700 NTSC, SMPTE 170M
   Audio #2
      ID : 2
      Format : MPEG Audio
      Format version : Version 1
      Format profile : Layer 3
      Codec ID : 6B
      Duration : 2h 8mn
      Bit rate mode : Constant
      Bit rate : 320 Kbps
      Channel(s) : 2 channels
      Sampling rate : 48.0 KHz
      Resolution : 16 bits
      Stream size : 293 MiB (28%)
      Writing library : LAME3.98.4